<svg id="instagram" xmlns="http://www.w3.org/2000/svg" width="40" height="40" viewBox="0 0 40 40">
  <path id="Caminho_88" data-name="Caminho 88" d="M39.132,23.88H27.21a3.455,3.455,0,0,0-3.451,3.451V39.253A3.455,3.455,0,0,0,27.21,42.7H39.132a3.455,3.455,0,0,0,3.451-3.452V27.331A3.455,3.455,0,0,0,39.132,23.88ZM33.171,39.489a6.2,6.2,0,1,1,6.2-6.2A6.2,6.2,0,0,1,33.171,39.489Zm6.4-11.113a1.466,1.466,0,1,1,1.466-1.466A1.468,1.468,0,0,1,39.567,28.377Z" transform="translate(-13.171 -13.238)" fill="#c5c5c5"/>
  <path id="Caminho_89" data-name="Caminho 89" d="M40.428,36.971a3.578,3.578,0,1,0,3.578,3.578A3.583,3.583,0,0,0,40.428,36.971Z" transform="translate(-20.428 -20.495)" fill="#c5c5c5"/>
  <path id="Caminho_90" data-name="Caminho 90" d="M20,0A20,20,0,1,0,40,20,20,20,0,0,0,20,0ZM32.031,26.015a6.076,6.076,0,0,1-6.07,6.07H14.039a6.076,6.076,0,0,1-6.07-6.07V14.093a6.077,6.077,0,0,1,6.07-6.07H25.961a6.076,6.076,0,0,1,6.07,6.07Z" fill="#c5c5c5"/>
</svg>
